<svg width="1440" height="67" viewBox="0 0 1440 67" fill="none" xmlns="http://www.w3.org/2000/svg">
<g clip-path="url(#clip0_12_590)">
<path d="M13.7566 45.6881C13.0679 45.6185 12.3779 45.5601 11.6905 45.4773C8.70481 45.1171 5.81129 44.4421 3.20879 42.8539C0.261502 41.0553 -1.53794 38.4673 -1.91472 35.0084C-2.28767 31.5857 -1.3792 28.5531 1.1482 26.1162C2.6882 24.6308 4.55378 23.6873 6.57169 23.0328C8.54907 22.391 10.5832 22.0526 12.6519 21.8593C14.4897 21.6878 16.3293 21.6728 18.1654 21.7373C21.4972 21.8542 24.7768 22.3065 27.8637 23.6664C30.3586 24.7652 32.4201 26.3726 33.6631 28.8659C34.5673 30.6798 34.8971 32.6077 34.7307 34.6312C34.3544 39.2017 31.7493 42.0717 27.713 43.8361C25.5748 44.7711 23.3124 45.2426 20.9988 45.485C20.3356 45.5545 19.6721 45.6206 19.009 45.6885C17.2582 45.6881 15.5074 45.6881 13.7566 45.6881ZM24.3156 33.6979C24.3442 33.022 24.272 32.2808 24.1577 31.5435C23.7557 28.9444 22.3954 27.1539 19.7784 26.4981C17.6004 25.9523 15.3999 25.951 13.2109 26.455C10.7052 27.0319 9.21175 28.6184 8.70524 31.1232C8.34211 32.9196 8.35107 34.7238 8.73297 36.5198C9.23948 38.9 10.6591 40.4319 13.0291 41.0143C15.2881 41.5695 17.5667 41.5707 19.8215 40.9968C22.0852 40.4208 23.4814 38.958 24.0122 36.6755C24.2349 35.7188 24.3331 34.7506 24.3156 33.6979Z" fill="#5F5F5F"/>
<path d="M154.104 44.9157C153.95 44.9238 153.796 44.9396 153.642 44.9396C147.554 44.9409 141.466 44.9409 135.377 44.9405C134.771 44.9405 134.77 44.9396 134.77 44.323C134.77 43.6151 134.778 42.9072 134.767 42.1993C134.763 41.9236 134.864 41.8208 135.143 41.7931C135.974 41.7111 136.802 41.5976 137.63 41.4965C137.85 41.4696 138.059 41.4073 138.255 41.3088C138.818 41.0263 138.994 40.5688 138.725 39.997C138.434 39.377 137.998 38.8449 137.626 38.274C137.496 38.0743 137.281 38.134 137.095 38.1336C133.955 38.1306 130.813 38.1315 127.673 38.1315C126.502 38.1315 125.33 38.1383 124.159 38.1268C123.885 38.1242 123.703 38.2032 123.562 38.4481C123.26 38.9717 122.926 39.4769 122.618 39.9975C122.252 40.6158 122.429 41.1453 123.087 41.4496C123.631 41.7005 124.226 41.6194 124.793 41.718C125.058 41.7641 125.329 41.7705 125.598 41.7961C126.165 41.8503 126.165 41.8507 126.166 42.4327C126.166 43.089 126.167 43.7457 126.165 44.402C126.164 44.9379 126.163 44.9401 125.634 44.9401C122.185 44.9409 118.735 44.9405 115.285 44.9405C114.255 44.9405 113.225 44.9298 112.196 44.9465C111.86 44.952 111.74 44.8423 111.749 44.5031C111.768 43.744 111.763 42.9844 111.751 42.2249C111.746 41.9377 111.84 41.8195 112.142 41.7909C112.999 41.7099 113.852 41.5942 114.706 41.4884C115.443 41.3971 115.942 40.9691 116.319 40.3572C117.656 38.1882 118.998 36.0218 120.338 33.855C121.536 31.9177 122.736 29.9813 123.932 28.0432C124.094 27.7816 124.265 27.5252 124.275 27.1962C124.296 26.5629 123.884 26.0837 123.252 26.0176C122.038 25.8909 120.825 25.7509 119.611 25.6378C119.325 25.6114 119.237 25.4992 119.241 25.2286C119.251 24.4695 119.259 23.7095 119.238 22.9504C119.228 22.5979 119.346 22.4832 119.701 22.4849C122.121 22.4972 124.54 22.4913 126.96 22.4913C129.998 22.4913 133.036 22.5135 136.074 22.4793C137.166 22.467 137.938 22.8958 138.522 23.791C141.102 27.7471 143.694 31.6958 146.281 35.6472C147.296 37.1978 148.314 38.7459 149.322 40.3017C149.854 41.1236 150.604 41.5174 151.574 41.5776C152.419 41.6301 153.261 41.7406 154.105 41.8255C154.104 42.856 154.104 43.8861 154.104 44.9157ZM130.517 34.0764C131.816 34.0764 133.115 34.0773 134.415 34.0743C134.511 34.0739 134.642 34.1238 134.697 34.0154C134.751 33.9109 134.643 33.8277 134.589 33.7457C133.249 31.7022 131.905 29.6617 130.568 27.6156C130.414 27.3792 130.335 27.3293 130.164 27.6114C128.92 29.6553 127.662 31.6903 126.411 33.7287C126.214 34.0496 126.228 34.0752 126.619 34.0756C127.918 34.0777 129.217 34.0764 130.517 34.0764Z" fill="#5F5F5F"/>
<path d="M65.2511 38.9925C65.2511 35.9488 65.2584 33.0143 65.2468 30.0803C65.2434 29.194 65.3236 28.3043 65.1896 27.421C65.0428 26.4511 64.5824 26.0364 63.613 25.9374C62.757 25.8499 61.9048 25.7253 61.0484 25.6387C60.7804 25.6113 60.6896 25.4991 60.7053 25.2457C60.7578 24.3991 60.8056 23.552 60.8496 22.7046C60.8594 22.5168 60.9349 22.4161 61.1295 22.4191C61.2323 22.4204 61.3356 22.4161 61.4384 22.4161C65.8536 22.4161 70.2688 22.4157 74.6839 22.4161C75.2604 22.4161 75.2613 22.4174 75.2617 22.9888C75.2626 23.7095 75.2544 24.4306 75.2651 25.1514C75.269 25.4193 75.1828 25.538 74.8977 25.567C74.1186 25.6459 73.3445 25.7769 72.5649 25.852C71.2383 25.9796 70.7471 26.4887 70.7108 27.8273C70.707 27.9689 70.7096 28.1106 70.7096 28.2518C70.7096 33.6194 70.7096 38.987 70.7096 44.3546C70.7096 44.9392 70.7087 44.9405 70.1134 44.9405C66.6123 44.9405 63.1111 44.9277 59.61 44.9473C58.5859 44.9533 57.8357 44.5782 57.2115 43.7504C53.4683 38.7873 49.6958 33.8469 45.9326 28.8991C45.8499 28.7903 45.7603 28.6871 45.6642 28.5697C45.5742 28.7122 45.613 28.8432 45.613 28.9657C45.6105 32.338 45.6088 35.7107 45.6143 39.083C45.6148 39.4551 45.6421 39.8293 45.6881 40.1989C45.7906 41.0139 46.3474 41.4777 47.2563 41.5707C48.1123 41.6582 48.964 41.7832 49.82 41.8694C50.0918 41.8967 50.1652 42.0192 50.1626 42.2663C50.1549 43.0386 50.146 43.8114 50.1665 44.5829C50.1754 44.9272 50.047 45.0237 49.7163 45.022C47.5153 45.0113 45.3139 45.0164 43.1129 45.0164C40.7959 45.0164 38.4789 45.01 36.1623 45.0228C35.8017 45.0249 35.6553 44.9255 35.6677 44.5453C35.6916 43.7994 35.6822 43.0523 35.6711 42.306C35.6669 42.0252 35.7488 41.8937 36.056 41.8647C36.8868 41.7862 37.7129 41.6556 38.5433 41.5741C39.6818 41.4623 40.2139 40.8756 40.222 39.6365C40.2331 37.9117 40.2254 36.1869 40.2254 34.4617C40.2254 32.3508 40.2254 30.2399 40.2254 28.1285C40.2254 27.9996 40.2292 27.8708 40.2216 27.7423C40.1524 26.545 39.6374 26.0355 38.4546 25.9284C37.6233 25.8533 36.7972 25.7253 35.9673 25.6306C35.7569 25.6067 35.6754 25.5051 35.6758 25.305C35.678 24.4682 35.678 23.6318 35.6767 22.7951C35.6762 22.5873 35.7714 22.4861 35.9818 22.4925C36.0846 22.4959 36.1879 22.4912 36.2907 22.4912C41.1821 22.4912 46.0735 22.4912 50.9648 22.4912C51.1709 22.4912 51.377 22.4887 51.5827 22.4964C52.3708 22.5245 52.9977 22.8138 53.4939 23.4727C57.2951 28.5207 61.1158 33.5541 64.9306 38.5919C65.0138 38.7028 65.1034 38.8086 65.2511 38.9925Z" fill="#5F5F5F"/>
<path d="M89.4099 44.9405C84.7323 44.9405 80.8706 44.9409 77.0085 44.94C76.4559 44.94 76.455 44.9383 76.4542 44.3857C76.4533 43.665 76.4627 42.9439 76.4499 42.2232C76.4448 41.9347 76.5412 41.8221 76.842 41.7905C77.8 41.6902 78.7575 41.5763 79.7083 41.4244C80.4042 41.3134 80.8083 40.8803 80.9184 40.1954C80.9735 39.8541 81.0029 39.5046 81.0038 39.1585C81.0097 35.4509 81.0059 31.7436 81.0106 28.0359C81.011 27.7116 80.9773 27.392 80.9222 27.0767C80.8271 26.5335 80.5011 26.1789 79.9703 26.0193C79.2623 25.8064 78.5229 25.8119 77.7987 25.7112C76.5229 25.5341 76.7908 25.7987 76.7627 24.5962C76.749 24.0172 76.7682 23.4377 76.7576 22.8582C76.7529 22.5988 76.8416 22.4673 77.1134 22.4917C77.1774 22.4976 77.2419 22.4917 77.3063 22.4917C84.7212 22.4921 92.1366 22.4767 99.5516 22.5023C102.207 22.5117 104.807 22.9192 107.269 23.9749C109.853 25.0831 111.862 26.804 112.908 29.4867C113.583 31.2196 113.761 33.0199 113.593 34.8692C113.446 36.4852 113.012 38.0013 112.161 39.3868C111.112 41.0958 109.619 42.3111 107.835 43.1773C105.675 44.2253 103.371 44.7361 100.987 44.8568C96.8582 45.0655 92.7251 44.8722 89.4099 44.9405ZM89.7842 33.7526C89.7842 35.8498 89.7837 37.9471 89.7842 40.0448C89.7842 40.5876 89.7854 40.5897 90.3073 40.5897C92.5979 40.5906 94.888 40.594 97.1786 40.5867C97.7176 40.585 98.2556 40.5782 98.7946 40.5044C101.042 40.198 102.364 39.0531 102.879 36.8449C103.328 34.9175 103.298 32.9674 102.971 31.0237C102.788 29.9369 102.387 28.9431 101.556 28.1729C100.617 27.302 99.4508 26.976 98.2236 26.9525C95.5738 26.9026 92.9226 26.9324 90.2723 26.9098C89.8733 26.9064 89.7735 27.0395 89.7765 27.4215C89.7927 29.532 89.7842 31.6425 89.7842 33.7526Z" fill="#5F5F5F"/>
</g>
<rect width="224.133" height="66.5394" transform="translate(250.104 0.000610352)" fill="white"/>
<path d="M463.885 35.7587L465.192 35.6532C465.728 35.611 466.264 35.5477 466.757 35.4845C468.043 35.2946 469.136 34.9571 470.036 34.493C470.379 34.3242 470.551 34.1977 470.936 33.9234C472.072 33.1218 472.651 32.046 472.737 30.5694C472.758 30.274 472.737 30.042 472.715 29.7888C472.651 28.8607 472.437 28.0802 472.051 27.4684C471.601 26.7301 470.958 26.1605 470.101 25.7386C469.243 25.3167 468.15 25.0003 466.885 24.8105C466.885 24.8105 465.021 24.5151 462.256 24.5151H441.122V42.045H447.767V35.8853H456.79L466.95 42.0661H474.237L463.885 35.7587ZM460.863 26.5613C460.905 26.5613 460.927 26.5613 460.97 26.5613C461.72 26.5824 462.363 26.6035 462.92 26.6668C463.628 26.7512 464.228 26.8989 464.699 27.152C465.192 27.4051 465.578 27.7848 465.771 28.2489C465.964 28.6497 466.05 29.156 466.071 29.7678C466.071 29.8099 466.092 30.6537 466.05 31.0756C466.028 31.4975 465.921 31.9616 465.771 32.278C465.621 32.6156 465.407 32.8898 465.106 33.1218C465.021 33.1851 464.935 33.2484 464.849 33.2906C464.421 33.5226 463.885 33.6703 463.199 33.7547C462.577 33.818 461.784 33.8602 460.841 33.8602H447.724V26.5613H460.863Z" fill="#5F5F5F"/>
<path d="M271.924 24.5362V32.7843C271.924 35.2524 271.002 37.0876 269.18 38.2268C267.615 39.2182 265.343 39.7245 262.45 39.7245H250.104V42.066H260.349C263.2 42.066 265.815 41.9605 268.108 41.7496C270.359 41.5386 272.267 41.1167 273.81 40.4839C275.31 39.8722 276.489 38.9862 277.303 37.847C278.032 36.8134 278.439 35.4633 278.525 33.7968C278.525 33.6492 278.547 33.4593 278.547 33.2484V24.5362H271.924Z" fill="#5F5F5F"/>
<path d="M347.993 34.029V39.7246H337.855C332.539 39.7246 329.453 38.037 328.617 34.7462C328.274 33.3751 328.488 32.0672 328.617 31.582C329.431 28.249 332.475 26.6247 337.855 26.6247H353.716V24.5363H339.934C337.04 24.5363 334.425 24.6418 332.132 24.8316C329.903 25.0215 327.974 25.4434 326.43 26.0551C324.909 26.6669 323.751 27.5318 322.958 28.6709C322.186 29.7467 321.801 31.2023 321.758 32.9954C321.758 33.0375 321.758 33.0797 321.758 33.143C321.758 33.2274 321.758 33.3118 321.758 33.4172C321.779 35.2736 322.186 36.7713 322.98 37.8683C323.794 39.0074 324.973 39.8934 326.473 40.5051C328.016 41.138 329.946 41.5599 332.175 41.7708C334.468 41.9818 337.062 42.0872 339.934 42.0872H354.616V34.029H347.993Z" fill="#5F5F5F"/>
<path d="M303.709 24.5363H296.872L281.547 42.0661H285.512L288.963 38.1214H308.232L311.683 42.0661H319.056L303.709 24.5363ZM298.587 27.1099L306.582 36.244H290.613L298.587 27.1099Z" fill="#5F5F5F"/>
<path d="M413.021 24.5363L397.696 42.0661H401.662L405.112 38.1003H424.36L427.811 42.0661H435.205L419.88 24.5363H413.021ZM422.752 36.244H406.763L414.758 27.1099L422.752 36.244Z" fill="#5F5F5F"/>
<path d="M388.073 24.5363V33.4172C388.073 34.1767 387.966 34.8728 387.816 35.5056C386.958 38.7331 383.893 40.3785 378.621 40.3996H377.956C372.662 40.3996 369.576 38.7121 368.74 35.4424C368.59 34.8306 368.504 34.1556 368.504 33.4383V24.5363H361.859V33.6915C361.859 35.59 362.267 37.151 363.081 38.2902C363.595 38.9863 364.239 39.6191 365.01 40.1254C365.482 40.4207 365.996 40.695 366.575 40.927C367.154 41.1591 367.775 41.37 368.461 41.5388C369.597 41.8341 370.883 42.045 372.298 42.1927C374.077 42.3615 376.091 42.4669 378.278 42.4669C380.485 42.4669 382.479 42.3615 384.258 42.1927C385.651 42.0661 386.937 41.8552 388.073 41.5599C388.759 41.3911 389.38 41.1802 389.959 40.9481C390.538 40.7161 391.052 40.4629 391.524 40.1465C392.317 39.6402 392.96 39.0285 393.453 38.3113C394.267 37.1721 394.674 35.6111 394.674 33.7126V24.5363H388.073Z" fill="#5F5F5F"/>
<rect width="78.7967" height="66.5394" transform="translate(570.237 0.000610352)" fill="white"/>
<path d="M581.421 23.0483C585.521 11.1631 596.855 3.13253 609.635 3.13253C622.416 3.13253 633.749 11.1631 637.849 23.0483V23.1286H646.852V22.0846L643.154 21.6831C640.823 21.4422 640.341 20.3982 639.698 19.1133L639.537 18.7921C634.151 7.38872 622.416 0.000610352 609.635 0.000610352C596.855 0.000610352 585.119 7.38872 579.653 18.7921L579.492 19.1133C578.93 20.3982 578.367 21.4422 576.116 21.6831L572.338 22.0846V23.1286H581.341L581.421 23.0483Z" fill="#5F5F5F"/>
<path d="M637.929 42.8839V42.9642C633.749 54.8494 622.416 62.8799 609.635 62.8799C596.855 62.8799 585.521 54.8494 581.421 42.9642V42.8839H572.338V43.9278L576.116 44.3293C578.447 44.5703 578.93 45.6142 579.573 46.8991L579.733 47.2203C585.039 58.6237 596.855 66.0119 609.635 66.0119C622.416 66.0119 634.151 58.6237 639.617 47.2203L639.778 46.8991C640.421 45.6142 640.903 44.6506 643.234 44.3293L647.012 43.9278V42.8839H637.929Z" fill="#5F5F5F"/>
<path d="M588.495 28.8303H586.405V37.9851H588.495V28.8303Z" fill="#5F5F5F"/>
<path d="M581.502 37.9048V28.8303H579.492V35.6562L572.821 28.8303H570.249V37.9048H572.258V31.0788L579.01 37.9048H581.502Z" fill="#5F5F5F"/>
<path d="M627.238 28.8303L621.612 37.9851H624.023L624.988 36.379H631.499L632.463 37.9851H634.875L629.248 28.8303H627.238ZM630.534 34.6123H626.033L628.283 30.9182L630.534 34.6123Z" fill="#5F5F5F"/>
<path d="M615.905 36.0579C615.824 36.0579 615.583 36.0579 615.503 36.0579H607.063V37.9049H615.583C615.664 37.9049 616.146 37.9049 616.226 37.9049C617.995 37.7443 618.718 36.3791 618.718 35.0942C618.718 33.8093 617.914 32.5244 616.307 32.3638C616.066 32.3638 615.824 32.3638 615.664 32.3638H610.117C609.876 32.3638 609.715 32.3638 609.474 32.2835C609.072 32.2032 608.831 31.882 608.912 31.4805C608.912 31.0789 609.153 30.7577 609.555 30.6774C609.715 30.5971 609.957 30.5971 610.117 30.5971H618.155V28.7501H610.037C609.796 28.7501 609.474 28.7501 609.233 28.8304C607.867 28.991 606.822 30.1153 606.822 31.4805C606.822 32.6047 607.545 33.9699 609.153 34.1305C609.474 34.1305 609.715 34.2108 610.037 34.1305H615.423C615.503 34.1305 615.744 34.1305 615.824 34.1305C616.307 34.2108 616.628 34.6124 616.628 35.0139C616.628 35.576 616.307 35.9776 615.905 36.0579Z" fill="#5F5F5F"/>
<path d="M601.115 36.0578C601.034 36.0578 600.793 36.0578 600.713 36.0578H592.353V37.9048H600.793C600.874 37.9048 601.356 37.9048 601.436 37.9048C603.205 37.7442 604.009 36.379 604.009 35.1744C604.009 33.9698 603.205 32.6046 601.597 32.444C601.356 32.444 601.115 32.444 600.954 32.444H595.408C595.167 32.444 595.006 32.444 594.765 32.3637C594.363 32.2834 594.122 31.9622 594.202 31.5607C594.202 31.1591 594.443 30.8379 594.845 30.7576C595.006 30.6773 595.247 30.6773 595.408 30.6773H603.446V28.8303H595.247C595.006 28.8303 594.684 28.8303 594.443 28.9106C593.077 29.0712 592.032 30.1955 592.032 31.5607C592.032 32.6849 592.755 34.0501 594.363 34.2107C594.684 34.2107 594.925 34.291 595.247 34.2107H600.632C600.713 34.2107 600.954 34.2107 601.034 34.2107C601.517 34.291 601.838 34.6926 601.838 35.0941C601.919 35.5759 601.517 35.9775 601.115 36.0578Z" fill="#5F5F5F"/>
<path d="M649.022 37.9048V28.8303H647.012V35.6562L640.341 28.8303H637.769V37.9048H639.778V31.0788L646.53 37.9048H649.022Z" fill="#5F5F5F"/>
<path d="M643.797 60.4708C644.762 60.4708 645.566 61.2738 645.566 62.2375C645.566 63.2012 644.762 64.0042 643.797 64.0042C642.833 64.0042 642.029 63.2012 642.029 62.2375C642.029 61.7557 642.19 61.3541 642.591 60.9526C642.833 60.6314 643.315 60.3905 643.797 60.4708ZM643.797 63.6027C644.199 63.6027 644.521 63.4421 644.762 63.2012C645.003 62.9602 645.164 62.5587 645.164 62.2375C645.164 61.5147 644.521 60.8723 643.797 60.9526C643.074 60.9526 642.431 61.595 642.431 62.3178C642.431 62.9602 642.993 63.6027 643.797 63.6027ZM643.074 63.1208V61.3541C643.315 61.3541 643.476 61.2738 643.717 61.2738C644.038 61.2738 644.521 61.3541 644.521 61.7557C644.521 61.9966 644.36 62.1572 644.119 62.1572C644.279 62.2375 644.36 62.3981 644.44 62.5587C644.44 62.7193 644.521 62.8799 644.601 62.9602H644.199C644.119 62.7996 644.119 62.639 644.038 62.5587C643.958 62.3178 643.797 62.3178 643.476 62.3178V63.0405L643.074 63.1208ZM643.476 62.0769C643.797 62.0769 644.119 62.0769 644.119 61.836C644.119 61.6753 644.038 61.595 643.717 61.595C643.636 61.595 643.556 61.595 643.476 61.595V62.0769Z" fill="#5F5F5F"/>
<rect width="224.133" height="66.5394" transform="translate(745.034 0.000610352)" fill="white"/>
<g clip-path="url(#clip1_12_590)">
<path d="M748.834 27.128L756.553 40.9354L765.476 40.9586L773.053 27.128H776.854V24.6133H765.429V27.128H768.733L763.21 37.1866L757.615 27.128H761.628V24.6133H745.034V27.128H748.834Z" fill="#5F5F5F"/>
<path d="M847.103 27.128V24.6367H862.399V27.128H858.599V38.4207H862.14C865.421 38.4207 867.569 36.2786 867.569 33.3914H870.095V40.9587H847.127V38.3974H850.974V27.1048H847.103V27.128Z" fill="#5F5F5F"/>
<path d="M810.019 24.2641C802.347 24.2641 798.264 28.0361 798.264 32.786C798.264 37.5825 802.182 41.4243 810.066 41.4243C817.951 41.4243 821.822 37.5825 821.822 32.786C821.822 28.0594 817.714 24.2641 810.019 24.2641ZM809.948 38.8398C807.139 38.7932 805.912 35.7431 805.959 32.6929C806.006 29.5495 807.541 26.802 810.161 26.8486C812.781 26.8952 814.174 29.6892 814.126 32.8326C814.079 35.7896 812.828 38.8864 809.948 38.8398Z" fill="#5F5F5F"/>
<path d="M896.155 27.128L903.874 40.9354L912.797 40.9586L920.374 27.128H924.175V24.6133H912.75V27.128H916.054L910.531 37.1866L904.936 27.128H908.949V24.6133H892.354V27.128H896.155Z" fill="#5F5F5F"/>
<path d="M957.34 24.2641C949.669 24.2641 945.585 28.0361 945.585 32.786C945.585 37.5825 949.503 41.4243 957.388 41.4243C965.272 41.4243 969.143 37.5825 969.143 32.786C969.143 28.0594 965.036 24.2641 957.34 24.2641ZM957.27 38.8398C954.461 38.7932 953.233 35.7431 953.28 32.6929C953.328 29.5495 954.862 26.802 957.482 26.8486C960.102 26.8952 961.495 29.6892 961.448 32.8326C961.401 35.7896 960.149 38.8864 957.27 38.8398Z" fill="#5F5F5F"/>
</g>
<rect width="143.585" height="66.5394" transform="translate(1065.17 0.000610352)" fill="white"/>
<path d="M1183.63 58.1219C1177.94 58.1219 1172.5 56.2517 1168.1 52.7631C1163.71 56.2158 1158.27 58.1219 1152.57 58.1219C1146.88 58.1219 1141.44 56.2517 1137.04 52.7631C1132.65 56.2158 1127.21 58.1219 1121.51 58.1219C1115.82 58.1219 1110.38 56.2517 1105.98 52.7631C1101.59 56.2158 1096.15 58.1219 1090.45 58.1219C1083.82 58.1219 1077.59 55.6044 1072.87 51.0009C1068.08 46.3974 1065.41 40.2474 1065.3 33.7019C1065.19 27.1203 1067.64 20.8984 1072.22 16.1151C1076.76 11.3678 1082.92 8.63449 1089.55 8.4187H1089.66H1091.24C1096.65 8.59852 1101.77 10.4687 1105.95 13.7415C1110.09 10.4687 1115.21 8.59852 1120.61 8.4187L1120.72 11.2239V8.4187H1122.31C1127.71 8.59852 1132.83 10.4687 1137.01 13.7415C1141.19 10.4687 1146.27 8.59852 1151.71 8.4187H1151.82H1153.4C1158.81 8.59852 1163.92 10.4687 1168.1 13.7415C1172.25 10.4687 1177.36 8.59852 1182.8 8.4187L1182.91 11.2239V8.4187H1184.5C1191.09 8.63449 1197.25 11.3678 1201.83 16.1151C1206.41 20.8625 1208.86 27.1203 1208.75 33.6659C1208.64 40.2474 1205.97 46.3974 1201.25 51.0009C1196.46 55.6044 1190.23 58.1219 1183.63 58.1219ZM1172.21 48.6991C1175.42 51.0368 1179.38 52.4395 1183.63 52.4395C1194.12 52.4395 1202.8 43.9878 1202.95 33.6299C1203.13 23.2721 1194.77 14.5687 1184.32 14.173H1182.95C1178.95 14.3169 1175.27 15.6836 1172.25 17.8774C1175.85 22.373 1177.72 27.9116 1177.65 33.7019C1177.51 39.2045 1175.63 44.4193 1172.21 48.6991ZM1141.15 48.6991C1144.36 51.0368 1148.32 52.4395 1152.57 52.4395C1156.82 52.4395 1160.75 51.0368 1163.96 48.6991C1160.57 44.4553 1158.66 39.2045 1158.55 33.7019C1158.45 27.9116 1160.36 22.373 1163.96 17.8774C1160.93 15.6836 1157.26 14.3169 1153.26 14.173H1151.89C1147.89 14.3169 1144.21 15.6836 1141.19 17.8774C1144.79 22.373 1146.66 27.9116 1146.59 33.7019C1146.45 39.2045 1144.54 44.4193 1141.15 48.6991ZM1110.05 48.6991C1113.26 51.0368 1117.22 52.4395 1121.48 52.4395C1125.73 52.4395 1129.66 51.0368 1132.86 48.6991C1129.48 44.4553 1127.57 39.2045 1127.46 33.7019C1127.35 27.9116 1129.26 22.373 1132.86 17.8774C1129.84 15.6836 1126.16 14.3169 1122.16 14.173H1120.79C1116.79 14.3169 1113.12 15.6836 1110.09 17.8774C1113.69 22.373 1115.57 27.9116 1115.49 33.7019C1115.35 39.2045 1113.44 44.4193 1110.05 48.6991ZM1089.7 14.1371C1079.25 14.4967 1070.89 23.2361 1071.07 33.594C1071.25 43.9518 1079.89 52.4035 1090.38 52.4035C1094.63 52.4035 1098.56 51.0009 1101.77 48.6632C1098.38 44.4193 1096.47 39.1685 1096.36 33.6659C1096.25 27.8756 1098.16 22.337 1101.77 17.8414C1098.74 15.6476 1095.06 14.2809 1091.06 14.1371H1089.7ZM1137.01 21.9414C1134.56 25.2142 1133.15 29.2422 1133.22 33.594C1133.3 37.6939 1134.7 41.5062 1137.01 44.5992C1139.31 41.5062 1140.72 37.6939 1140.79 33.594C1140.86 29.2422 1139.42 25.2142 1137.01 21.9414ZM1105.91 21.9414C1103.46 25.2142 1102.05 29.2422 1102.13 33.594C1102.2 37.6939 1103.6 41.5062 1105.91 44.5992C1108.22 41.5062 1109.62 37.6939 1109.69 33.594C1109.77 29.2422 1108.36 25.2142 1105.91 21.9414ZM1168.07 21.9414C1165.62 25.2142 1164.21 29.2422 1164.28 33.594C1164.36 37.6939 1165.76 41.5062 1168.07 44.5992C1170.37 41.5062 1171.78 37.6939 1171.85 33.594C1171.96 29.2422 1170.52 25.2142 1168.07 21.9414Z" fill="#5F5F5F"/>
<rect width="217.129" height="66.5394" transform="translate(1304.75 0.000610352)" fill="white"/>
<path d="M1383.41 21.1752H1389.33L1402.59 43.0605H1396.31L1386.41 26.3628L1381.14 35.198H1389.66L1392.21 39.3318H1378.87L1376.48 43.0199H1370.19L1383.41 21.1752ZM1487.72 43.101H1494.01L1496.4 39.4129H1509.75L1507.19 35.2791H1498.67L1503.95 26.4439L1513.84 43.1416H1520.13L1506.87 21.2562H1500.95L1487.72 43.101ZM1402.23 32.1583V35.0764C1402.35 40.8315 1405.6 43.2631 1410.62 43.1416H1427.17V38.6429H1410.66C1407.91 38.7239 1407.7 36.8192 1407.62 34.9143V32.1584V29.2809C1407.7 27.5787 1407.91 25.6334 1410.66 25.6739H1427.17V21.1753H1410.62C1405.6 21.0537 1402.39 23.526 1402.23 29.2405V32.1583ZM1465.05 25.8765H1478.36C1480.22 25.8765 1481.15 26.6871 1481.15 28.2677C1481.15 29.8888 1480.22 30.6589 1478.36 30.6589H1466.43L1467.49 35.3602H1477.67C1479.65 35.3196 1480.79 36.6976 1480.95 38.6025L1481.11 43.1011H1486.39C1486.39 43.1011 1486.35 38.8862 1486.22 38.0351C1486.1 37.184 1485.74 34.8333 1483.67 33.6985C1488.54 30.4968 1486.75 21.2159 1479.77 21.2159H1459.7V43.101H1465.05L1465.05 25.8765ZM1443.27 43.101H1447.94C1453.7 42.9795 1456.13 39.7372 1456.01 34.7117V21.1752H1450.74V35.8059C1450.82 38.5618 1448.87 38.7644 1447 38.8455H1443.27H1439.34C1437.64 38.7645 1435.69 38.5618 1435.73 35.8059V21.1752H1430.34V34.7522C1430.21 39.7777 1432.69 42.9795 1438.41 43.101H1443.27ZM1355.85 30.9242C1355.4 22.7374 1352.6 16.7392 1348.79 13.4564C1344.65 9.93046 1336.95 8.55248 1330.98 8.59303C1325.02 8.55248 1317.32 9.93046 1313.18 13.4564C1309.37 16.7393 1306.57 22.7375 1306.12 30.9242C1305.72 38.6244 1307.38 47.0138 1311.76 51.7557C1315.98 56.4164 1324.41 57.8754 1330.94 57.8754C1337.47 57.9159 1345.91 56.4164 1350.13 51.7557C1354.51 46.9733 1356.21 38.5839 1355.85 30.9242ZM1329.56 10.6599C1330.37 10.6194 1330.58 10.6194 1330.94 10.6194C1331.31 10.6194 1331.47 10.6194 1332.32 10.6599L1332.36 28.5734C1332.12 28.5734 1329.77 28.5734 1329.52 28.5734C1329.52 28.5734 1329.52 10.6599 1329.56 10.6599ZM1309.41 38.4621C1309.16 35.3821 1308.23 24.1557 1312.69 17.7522C1314.6 14.9558 1317.4 13.0915 1320.24 12.1188C1324.17 10.7409 1328.87 10.6598 1328.87 10.6598C1327.05 15.1585 1323.28 24.8042 1322.55 26.9521C1321.66 29.5864 1320.88 31.086 1320.11 35.8278C1319.63 39.7186 1318.78 49.4048 1318.53 53.6198C1313.26 51.1071 1310.1 46.3248 1309.41 38.4621ZM1330.9 55.8084C1327.21 55.768 1322.67 55.4032 1319.06 53.8631C1320.28 50.6208 1326.08 36.6791 1329.28 31.2483C1329.52 31.2483 1332.32 31.2483 1332.57 31.2483C1335.73 36.6791 1341.57 50.6208 1342.79 53.8631C1339.14 55.4436 1334.63 55.768 1330.9 55.8084ZM1352.44 38.422C1351.75 46.325 1348.59 51.0668 1343.31 53.6201C1343.07 49.4051 1342.22 39.7189 1341.73 35.8281C1340.96 31.0457 1340.19 29.5867 1339.3 26.9524C1338.57 24.8043 1334.8 15.1586 1332.97 10.66C1332.97 10.66 1337.68 10.741 1341.61 12.119C1344.45 13.0917 1347.25 14.9964 1349.15 17.7524C1353.61 24.1559 1352.68 35.3821 1352.44 38.422Z" fill="#5F5F5F"/>
<defs>
<clipPath id="clip0_12_590">
<rect width="272.104" height="66.54" fill="white" transform="translate(-118)"/>
</clipPath>
<clipPath id="clip1_12_590">
<rect width="224.133" height="17.1835" fill="white" transform="translate(745.034 24.2408)"/>
</clipPath>
</defs>
</svg>
