<svg width="186" height="127" viewBox="0 0 186 127" fill="none" xmlns="http://www.w3.org/2000/svg">
<rect x="1.32292" y="1.32292" width="182.562" height="124.354" rx="14.5521" fill="white" stroke="#D9D9D9" stroke-width="2.64583"/>
<path fill-rule="evenodd" clip-rule="evenodd" d="M44.1654 47.2702C46.6527 47.48 49.14 46.0113 50.6946 44.1492C52.2232 42.2346 53.2337 39.6643 52.9746 37.0416C50.7723 37.1465 48.0518 38.5103 46.4972 40.4249C45.0722 42.0772 43.8545 44.7524 44.1654 47.2702ZM73.7539 81.0506V40.1626H88.9109C96.7355 40.1626 102.202 45.6178 102.202 53.5908C102.202 61.5639 96.6319 67.0715 88.7036 67.0715H80.0239V81.0506H73.7539ZM52.9484 47.7684C50.7571 47.6408 48.7577 48.4355 47.1427 49.0774C46.1034 49.4905 45.2233 49.8404 44.5538 49.8404C43.8024 49.8404 42.886 49.4718 41.857 49.0581C40.5088 48.5159 38.9674 47.896 37.351 47.9258C33.6459 47.9782 30.2 50.1026 28.3086 53.4859C24.4222 60.2525 27.2981 70.2713 31.055 75.7789C32.8946 78.5066 35.0968 81.4965 37.9987 81.3915C39.2753 81.3428 40.1937 80.9483 41.1441 80.5401C42.2382 80.0701 43.3749 79.5819 45.1497 79.5819C46.863 79.5819 47.9499 80.0574 48.9933 80.5138C49.9854 80.9479 50.9381 81.3647 52.3525 81.3391C55.358 81.2866 57.2494 78.6115 59.0889 75.8839C61.0741 72.9564 61.9465 70.0993 62.0789 69.6657L62.0843 69.6482C62.089 69.6328 62.0923 69.6219 62.0944 69.6156C62.0913 69.6124 62.0669 69.6011 62.0239 69.5811L62.0235 69.581L62.0235 69.581C61.3598 69.2734 56.2875 66.9229 56.2389 60.6197C56.1901 55.3291 60.2621 52.6486 60.9031 52.2266L60.9033 52.2265C60.9422 52.2009 60.9684 52.1836 60.9803 52.1746C58.3894 48.293 54.3475 47.8733 52.9484 47.7684ZM113.655 81.3655C117.593 81.3655 121.246 79.3461 122.904 76.1463H123.034V81.0508H128.837V60.6986C128.837 54.7975 124.174 50.9946 116.997 50.9946C110.338 50.9946 105.415 54.85 105.234 60.1478H110.882C111.349 57.63 113.655 55.9777 116.816 55.9777C120.65 55.9777 122.801 57.7874 122.801 61.1182V63.3738L114.976 63.8459C107.695 64.2917 103.757 67.3078 103.757 72.5532C103.757 77.8511 107.825 81.3655 113.655 81.3655ZM115.338 76.5134C111.996 76.5134 109.871 74.8873 109.871 72.3957C109.871 69.8255 111.918 68.3305 115.83 68.0945L122.8 67.6486V69.9566C122.8 73.7857 119.587 76.5134 115.338 76.5134ZM148.088 82.6506C145.575 89.8106 142.699 92.1711 136.584 92.1711C136.118 92.1711 134.563 92.1186 134.2 92.0137V87.1092C134.589 87.1617 135.548 87.2142 136.04 87.2142C138.812 87.2142 140.367 86.0339 141.325 82.9654L141.895 81.1557L131.273 51.388H137.828L145.212 75.5431H145.341L152.726 51.388H159.099L148.088 82.6506ZM80.0234 45.513H87.2521C92.693 45.513 95.8022 48.4504 95.8022 53.6172C95.8022 58.7839 92.693 61.7476 87.2262 61.7476H80.0234V45.513Z" fill="black"/>
</svg>
