<svg width="186" height="127" viewBox="0 0 186 127" fill="none" xmlns="http://www.w3.org/2000/svg">
<rect x="1.32292" y="1.32292" width="182.562" height="124.354" rx="14.5521" fill="white" stroke="#D9D9D9" stroke-width="2.64583"/>
<path fill-rule="evenodd" clip-rule="evenodd" d="M87.472 83.3862V67.4004H95.7226C99.1035 67.4004 101.957 66.2675 104.283 64.0333L104.842 63.4668C109.091 58.841 108.812 51.6348 104.283 47.3551C102.019 45.0894 98.9174 43.8621 95.7226 43.925H82.4781V83.3862H87.472ZM87.4725 62.554V48.7709H95.8486C97.6479 48.7709 99.3541 49.4632 100.626 50.722C103.325 53.3653 103.387 57.7709 100.781 60.5086C99.5092 61.8617 97.7099 62.617 95.8486 62.554H87.4725ZM128.136 58.4948C125.996 56.5123 123.08 55.5053 119.389 55.5053C114.643 55.5053 111.076 57.2676 108.719 60.7605L113.123 63.5612C114.736 61.1696 116.939 59.9738 119.73 59.9738C121.498 59.9738 123.204 60.6347 124.538 61.8305C125.841 62.9633 126.585 64.5997 126.585 66.3304V67.4947C124.662 66.4248 122.243 65.8584 119.265 65.8584C115.791 65.8584 112.999 66.6766 110.921 68.3444C108.843 70.0122 107.788 72.215 107.788 75.0157C107.726 77.5646 108.812 79.9876 110.735 81.624C112.689 83.3862 115.171 84.2673 118.086 84.2673C121.529 84.2673 124.259 82.7254 126.337 79.6415H126.554V83.3862H131.331V66.7395C131.331 63.2465 130.276 60.4773 128.136 58.4948ZM114.582 78.4143C113.558 77.6591 112.938 76.4318 112.938 75.1101C112.938 73.6311 113.62 72.4039 114.954 71.4283C116.319 70.4528 118.026 69.9493 120.042 69.9493C122.834 69.9179 125.006 70.5472 126.557 71.806C126.557 73.9458 125.719 75.8024 124.075 77.3758C122.586 78.8863 120.569 79.736 118.46 79.736C117.064 79.7674 115.699 79.2954 114.582 78.4143ZM142.063 95.2497L158.75 56.3864H153.322L145.599 75.7709H145.506L137.596 56.3864H132.168L143.117 81.6554L136.914 95.2497H142.063Z" fill="#3C4043"/>
<path d="M70.2316 63.939C70.2316 62.397 70.1075 60.8551 69.8593 59.3446H48.7985V68.0613H60.8643C60.368 70.862 58.7551 73.3795 56.3978 74.9529V80.6172H63.5938C67.8122 76.6836 70.2316 70.862 70.2316 63.939Z" fill="#4285F4"/>
<path d="M48.7995 86.0927C54.8169 86.0927 59.9037 84.0788 63.5948 80.6173L56.3987 74.953C54.3826 76.3376 51.8082 77.1243 48.7995 77.1243C42.9682 77.1243 38.0364 73.1278 36.2684 67.7782H28.8553V73.6313C32.6394 81.2781 40.3627 86.0927 48.7995 86.0927Z" fill="#34A853"/>
<path d="M36.2691 67.7781C35.3385 64.9774 35.3385 61.925 36.2691 59.0929V53.2712H28.8548C25.6595 59.6593 25.6595 67.2117 28.8548 73.5997L36.2691 67.7781Z" fill="#FBBC04"/>
<path d="M48.7995 49.7467C51.9943 49.6837 55.065 50.911 57.3603 53.1453L63.7499 46.6628C59.6866 42.8237 54.3516 40.7153 48.7995 40.7782C40.3627 40.7782 32.6394 45.6243 28.8553 53.2711L36.2684 59.1242C38.0364 53.7432 42.9682 49.7467 48.7995 49.7467Z" fill="#EA4335"/>
</svg>
