<svg width="186" height="127" viewBox="0 0 186 127" fill="none" xmlns="http://www.w3.org/2000/svg">
<rect x="1.32292" y="1.32292" width="182.562" height="124.354" rx="14.5521" fill="white" stroke="#D9D9D9" stroke-width="2.64583"/>
<path fill-rule="evenodd" clip-rule="evenodd" d="M117.349 99.515C137.292 99.515 153.458 83.1607 153.458 62.9867C153.458 42.8126 137.292 26.4584 117.349 26.4584C108.412 26.4584 100.232 29.7432 93.9271 35.1845C87.6217 29.7432 79.4425 26.4584 70.505 26.4584C50.5624 26.4584 34.3958 42.8127 34.3958 62.9867C34.3958 83.1607 50.5624 99.515 70.505 99.515C79.4425 99.515 87.6217 96.2302 93.9271 90.7889C100.233 96.2302 108.412 99.515 117.349 99.515Z" fill="#ED0006"/>
<path fill-rule="evenodd" clip-rule="evenodd" d="M93.9271 90.7888C101.691 84.0889 106.614 74.1194 106.614 62.9867C106.614 51.854 101.691 41.8845 93.9271 35.1845C100.232 29.7432 108.412 26.4584 117.349 26.4584C137.292 26.4584 153.458 42.8126 153.458 62.9867C153.458 83.1607 137.292 99.515 117.349 99.515C108.412 99.515 100.232 96.2302 93.9271 90.7888Z" fill="#F9A000"/>
<path fill-rule="evenodd" clip-rule="evenodd" d="M93.9272 90.7887C101.691 84.0887 106.614 74.1193 106.614 62.9866C106.614 51.854 101.691 41.8845 93.9272 35.1846C86.1634 41.8845 81.2404 51.854 81.2404 62.9866C81.2404 74.1193 86.1634 84.0887 93.9272 90.7887Z" fill="#FF5E00"/>
</svg>
