<svg width="186" height="127" viewBox="0 0 186 127" fill="none" xmlns="http://www.w3.org/2000/svg">
<rect x="1.32292" y="1.32292" width="182.562" height="124.354" rx="14.5521" fill="white" stroke="#D9D9D9" stroke-width="2.64583"/>
<path fill-rule="evenodd" clip-rule="evenodd" d="M56.2253 86.033H45.0053L36.5916 53.9345C36.1923 52.4579 35.3444 51.1526 34.0971 50.5374C30.9844 48.9913 27.5543 47.7608 23.8125 47.1403V45.9045H41.8871C44.3816 45.9045 46.2526 47.7608 46.5644 49.9168L50.9299 73.0706L62.1444 45.9045H73.0526L56.2253 86.033ZM79.2891 86.033H68.6927L77.4182 45.9045H88.0145L79.2891 86.033ZM101.724 57.0214C102.036 54.8601 103.906 53.6243 106.089 53.6243C109.519 53.3141 113.256 53.9346 116.374 55.4754L118.245 46.8355C115.126 45.5997 111.696 44.9791 108.584 44.9791C98.2991 44.9791 90.8155 50.5375 90.8155 58.2519C90.8155 64.1206 96.1164 67.202 99.8582 69.0584C103.906 70.9094 105.466 72.1452 105.154 73.9962C105.154 76.7728 102.036 78.0086 98.9228 78.0086C95.1809 78.0086 91.4391 77.0831 88.0146 75.537L86.1436 84.1822C89.8855 85.7229 93.9337 86.3435 97.6755 86.3435C109.207 86.6484 116.374 81.0954 116.374 72.7604C116.374 62.2642 101.724 61.649 101.724 57.0214V57.0214ZM153.458 86.033L145.045 45.9045H136.007C134.136 45.9045 132.266 47.1403 131.642 48.9913L116.062 86.033H126.97L129.147 80.1697H142.55L143.797 86.033H153.458ZM137.566 56.7113L140.679 71.8351H131.954L137.566 56.7113Z" fill="#172B85"/>
</svg>
