<svg width="186" height="127" viewBox="0 0 186 127" fill="none" xmlns="http://www.w3.org/2000/svg">
<rect x="1.32292" y="1.32292" width="182.562" height="124.354" rx="14.5521" fill="white" stroke="#D9D9D9" stroke-width="2.64583"/>
<path d="M129.646 57.0394C129.264 54.748 127.164 53.2205 124.299 53.2205C123.345 53.2205 122.581 53.2205 121.626 53.2205C119.908 53.0295 119.526 53.6024 119.526 54.939C119.526 61.6222 119.526 68.1144 119.526 74.7976C119.526 78.2347 116.089 81.8627 112.079 82.6265C99.4762 85.4907 86.8735 88.164 74.2709 91.0282C72.9343 91.4101 71.4067 91.4101 69.8792 91.4101C69.3063 91.4101 68.3516 91.0282 68.1606 90.4554C67.9697 90.0735 68.5425 89.3097 68.9244 88.9278C69.4973 88.5459 70.2611 88.164 71.0249 87.7821C73.3162 87.0183 75.7985 86.2545 78.0899 85.4907C87.4464 82.4356 96.8029 79.3804 106.159 76.1343C110.36 74.7976 112.652 71.9334 112.652 68.3054C112.843 56.8485 112.652 45.2006 112.652 33.7437C112.652 31.8343 111.697 30.3067 109.596 29.5429C107.114 28.5881 104.823 29.3519 102.722 30.3067C89.3558 36.608 76.1804 42.9093 62.814 49.2106C58.9951 51.12 56.7037 53.7933 56.7037 57.6123C56.7037 68.4963 56.7037 79.3804 56.7037 90.2644C56.7037 90.8373 56.7037 91.4101 56.8946 91.792C58.2313 95.4201 61.6684 97.7114 66.2511 97.7114C75.6076 97.7114 84.964 97.7114 94.3205 97.7114C103.677 97.7114 112.843 97.7114 122.199 97.7114C124.299 97.7114 126.018 97.3295 127.546 95.9929C129.455 94.4653 129.455 92.3649 129.455 90.4554C129.455 81.0611 129.646 57.0394 129.646 57.0394ZM90.6925 53.6024C91.6472 51.12 93.7477 49.5925 96.8029 49.2106C98.9033 49.0196 100.622 50.1653 101.004 52.0748C101.386 54.939 97.9485 58.3761 94.3205 58.3761C91.4563 58.3761 89.7378 56.2757 90.6925 53.6024Z" fill="#FD6727"/>
</svg>
